<svg xmlns="http://www.w3.org/2000/svg" xmlns:xlink="http://www.w3.org/1999/xlink" version="1.1" width="71" height="35" viewBox="0 0 1000 1000" xml:space="preserve">
<desc>Created with Fabric.js 3.5.0</desc>
<defs>
</defs>
<rect x="0" y="0" width="100%" height="100%" fill="#ffffff"/>
<g transform="matrix(12.8041 0 0 2.3555 500 1325.3901)" id="510447">
<g style="" vector-effect="non-scaling-stroke">
		<g transform="matrix(1 0 0 1 -24.172 1.704)">
<path style="stroke: none; stroke-width: 1; stroke-dasharray: none; stroke-linecap: butt; stroke-dashoffset: 0; stroke-linejoin: miter; stroke-miterlimit: 4; is-custom-font: none; font-file-url: none; fill: rgb(255,174,0); fill-rule: nonzero; opacity: 1;" transform=" translate(-11.328, -19.204)" d="M 22.272 27.568 C 22.272 27.904 22.136 28.072 21.864 28.072 C 21.288 28.072 20.712 28.064 20.136 28.048 C 19.576 28.032 19.016 28.024 18.456 28.024 C 17.912 28.024 17.368 28.032 16.824 28.048 C 16.28 28.08 15.736 28.096 15.192 28.096 C 15.032 28.096 14.92 28.048 14.856 27.952 C 14.792 27.84 14.76 27.72 14.76 27.592 C 14.76 27.464 14.808 27.368 14.904 27.304 C 15.016 27.224 15.128 27.184 15.24 27.184 C 15.384 27.184 15.528 27.192 15.672 27.208 C 15.816 27.224 15.96 27.232 16.104 27.232 C 16.136 27.232 16.176 27.232 16.224 27.232 C 16.272 27.232 16.312 27.232 16.344 27.232 C 16.616 27.2 16.76 27.048 16.776 26.776 C 16.808 26.488 16.824 26.248 16.824 26.056 V 13.576 C 15.912 15.848 14.984 18.112 14.04 20.368 C 13.112 22.608 12.2 24.872 11.304 27.16 H 9.432 C 8.52 24.792 7.576 22.44 6.6 20.104 C 5.64 17.768 4.696 15.416 3.768 13.048 C 3.768 15.24 3.784 17.432 3.816 19.624 C 3.848 21.8 3.864 23.984 3.864 26.176 C 3.864 26.368 3.872 26.6 3.888 26.872 C 3.92 27.128 4.072 27.256 4.344 27.256 C 4.552 27.256 4.752 27.248 4.944 27.232 C 5.136 27.216 5.336 27.208 5.544 27.208 C 5.656 27.208 5.752 27.256 5.832 27.352 C 5.912 27.432 5.952 27.528 5.952 27.64 C 5.952 27.72 5.92 27.816 5.856 27.928 C 5.792 28.024 5.712 28.072 5.616 28.072 C 5.328 28.072 5.04 28.064 4.752 28.048 C 4.464 28.032 4.176 28.024 3.888 28.024 C 3.376 28.024 2.856 28.032 2.328 28.048 C 1.8 28.064 1.28 28.072 0.768 28.072 C 0.608 28.072 0.504 28.032 0.456 27.952 C 0.408 27.856 0.384 27.736 0.384 27.592 C 0.384 27.464 0.432 27.368 0.528 27.304 C 0.64 27.24 0.744 27.208 0.84 27.208 C 0.984 27.208 1.128 27.216 1.272 27.232 C 1.432 27.248 1.584 27.256 1.728 27.256 C 2 27.256 2.192 27.224 2.304 27.16 C 2.432 27.08 2.496 26.888 2.496 26.584 C 2.496 24.152 2.504 21.72 2.52 19.288 C 2.552 16.84 2.568 14.4 2.568 11.968 C 2.568 11.712 2.52 11.528 2.424 11.416 C 2.344 11.288 2.168 11.224 1.896 11.224 C 1.736 11.224 1.576 11.232 1.416 11.248 C 1.256 11.264 1.096 11.272 0.936 11.272 C 0.808 11.272 0.696 11.224 0.6 11.128 C 0.504 11.032 0.456 10.92 0.456 10.792 C 0.456 10.488 0.616 10.336 0.936 10.336 C 1.32 10.336 1.704 10.344 2.088 10.36 C 2.488 10.376 2.88 10.384 3.264 10.384 C 3.728 10.384 4.192 10.384 4.656 10.384 C 5.136 10.384 5.608 10.36 6.072 10.312 L 11.424 23.56 C 12.288 21.368 13.192 19.192 14.136 17.032 C 15.096 14.856 15.936 12.64 16.656 10.384 C 17.024 10.4 17.392 10.416 17.76 10.432 C 18.144 10.432 18.528 10.432 18.912 10.432 C 19.408 10.432 19.904 10.416 20.4 10.384 C 20.912 10.352 21.416 10.336 21.912 10.336 C 22.04 10.336 22.128 10.392 22.176 10.504 C 22.224 10.6 22.248 10.696 22.248 10.792 C 22.248 10.888 22.224 11 22.176 11.128 C 22.128 11.24 22.04 11.296 21.912 11.296 C 21.688 11.296 21.456 11.296 21.216 11.296 C 20.992 11.28 20.768 11.272 20.544 11.272 C 20.384 11.272 20.264 11.344 20.184 11.488 C 20.12 11.616 20.088 11.752 20.088 11.896 C 20.088 12.824 20.08 13.768 20.064 14.728 C 20.064 15.672 20.064 16.616 20.064 17.56 C 20.064 18.968 20.064 20.376 20.064 21.784 C 20.08 23.192 20.088 24.6 20.088 26.008 C 20.088 26.152 20.096 26.32 20.112 26.512 C 20.144 26.704 20.2 26.88 20.28 27.04 C 20.376 27.184 20.52 27.256 20.712 27.256 C 20.904 27.256 21.096 27.248 21.288 27.232 C 21.48 27.216 21.68 27.208 21.888 27.208 C 21.984 27.208 22.072 27.24 22.152 27.304 C 22.232 27.368 22.272 27.456 22.272 27.568 Z" stroke-linecap="round"/>
</g>
		<g transform="matrix(1 0 0 1 11.3684 1.26)">
<path style="stroke: none; stroke-width: 1; stroke-dasharray: none; stroke-linecap: butt; stroke-dashoffset: 0; stroke-linejoin: miter; stroke-miterlimit: 4; is-custom-font: none; font-file-url: none; fill: rgb(17,17,17); fill-rule: nonzero; opacity: 1;" transform=" translate(-46.8684, -18.76)" d="M 30.7504 25.456 C 30.7024 24.704 30.6704 23.952 30.6544 23.2 C 30.6384 22.432 30.6384 21.664 30.6544 20.896 C 29.9984 21.008 29.3584 21.216 28.7344 21.52 C 28.1264 21.808 27.6224 22.2 27.2224 22.696 C 26.8224 23.192 26.6224 23.824 26.6224 24.592 C 26.6224 24.912 26.6624 25.256 26.7424 25.624 C 26.8384 25.992 26.9984 26.304 27.2224 26.56 C 27.4624 26.8 27.7824 26.92 28.1824 26.92 C 28.4704 26.92 28.7744 26.84 29.0944 26.68 C 29.4144 26.504 29.7184 26.304 30.0064 26.08 C 30.3104 25.856 30.5584 25.648 30.7504 25.456 Z M 35.6944 26.872 C 35.6944 26.936 35.6624 27.008 35.5984 27.088 C 35.5504 27.168 35.5024 27.232 35.4544 27.28 C 34.9584 27.856 34.3184 28.144 33.5344 28.144 C 32.8464 28.144 32.2944 27.992 31.8784 27.688 C 31.4624 27.384 31.1424 26.912 30.9184 26.272 C 30.4064 26.816 29.8544 27.248 29.2624 27.568 C 28.6864 27.888 28.0064 28.048 27.2224 28.048 C 26.6624 28.048 26.0944 27.928 25.5184 27.688 C 24.9584 27.432 24.4864 27.072 24.1024 26.608 C 23.7344 26.144 23.5504 25.608 23.5504 25 C 23.5504 24.392 23.7024 23.856 24.0064 23.392 C 24.3264 22.912 24.7264 22.504 25.2064 22.168 C 25.6864 21.816 26.1744 21.528 26.6704 21.304 C 27.3104 21.032 27.9664 20.824 28.6384 20.68 C 29.3104 20.52 29.9824 20.36 30.6544 20.2 V 20.104 C 30.6544 19.816 30.6464 19.432 30.6304 18.952 C 30.6304 18.456 30.5824 17.968 30.4864 17.488 C 30.3904 16.992 30.2304 16.576 30.0064 16.24 C 29.7824 15.888 29.4544 15.712 29.0224 15.712 C 28.5264 15.712 28.0784 15.856 27.6784 16.144 C 27.2944 16.432 27.0224 16.816 26.8624 17.296 C 26.8304 17.44 26.8064 17.584 26.7904 17.728 C 26.7744 17.856 26.7504 17.992 26.7184 18.136 C 26.6864 18.392 26.5344 18.568 26.2624 18.664 C 26.0064 18.744 25.7664 18.784 25.5424 18.784 C 25.2704 18.784 25.0064 18.728 24.7504 18.616 C 24.4944 18.488 24.3664 18.256 24.3664 17.92 C 24.3664 17.792 24.3824 17.68 24.4144 17.584 C 24.4624 17.472 24.5104 17.36 24.5584 17.248 C 24.8144 16.64 25.1984 16.192 25.7104 15.904 C 26.2224 15.616 26.7824 15.424 27.3904 15.328 C 28.0144 15.232 28.6064 15.184 29.1664 15.184 C 30.4784 15.184 31.5584 15.536 32.4064 16.24 C 33.2544 16.944 33.6784 17.984 33.6784 19.36 V 22.984 C 33.6624 23.432 33.6544 23.896 33.6544 24.376 C 33.6704 24.84 33.6944 25.304 33.7264 25.768 C 33.7584 26.04 33.8224 26.304 33.9184 26.56 C 34.0144 26.8 34.2304 26.92 34.5664 26.92 C 34.7904 26.92 34.9744 26.872 35.1184 26.776 C 35.2784 26.68 35.4224 26.632 35.5504 26.632 C 35.6144 26.632 35.6544 26.664 35.6704 26.728 C 35.6864 26.792 35.6944 26.84 35.6944 26.872 Z M 47.2371 23.896 C 47.2371 24.216 47.1971 24.544 47.1171 24.88 C 47.0531 25.216 47.0051 25.544 46.9731 25.864 C 46.9571 26.12 46.9331 26.424 46.9011 26.776 C 46.8691 27.128 46.8291 27.424 46.7811 27.664 C 46.7651 27.856 46.6611 27.952 46.4691 27.952 C 45.4771 27.952 44.4771 27.944 43.4691 27.928 C 42.4771 27.912 41.4851 27.904 40.4931 27.904 C 39.8051 27.904 39.1091 27.92 38.4051 27.952 C 37.7011 27.968 36.9971 27.976 36.2931 27.976 C 36.1811 27.976 36.0851 27.936 36.0051 27.856 C 35.9251 27.776 35.8851 27.68 35.8851 27.568 C 35.8851 27.52 35.9491 27.408 36.0771 27.232 C 36.2051 27.04 36.3571 26.832 36.5331 26.608 C 36.7091 26.384 36.8691 26.176 37.0131 25.984 C 37.1731 25.792 37.2771 25.656 37.3251 25.576 C 37.6291 25.112 37.9411 24.656 38.2611 24.208 C 38.5971 23.76 38.9171 23.304 39.2211 22.84 C 39.8451 21.88 40.4611 20.904 41.0691 19.912 C 41.6931 18.92 42.2771 17.92 42.8211 16.912 C 42.8851 16.816 42.9411 16.72 42.9891 16.624 C 43.0371 16.512 43.0611 16.4 43.0611 16.288 C 43.0611 16.064 42.9331 15.936 42.6771 15.904 C 42.5171 15.872 42.3411 15.856 42.1491 15.856 C 41.9571 15.856 41.7731 15.856 41.5971 15.856 C 41.2771 15.856 40.9411 15.864 40.5891 15.88 C 40.2371 15.896 39.9011 15.928 39.5811 15.976 C 39.1331 16.04 38.7891 16.184 38.5491 16.408 C 38.3091 16.616 38.0931 16.912 37.9011 17.296 C 37.8051 17.504 37.7171 17.72 37.6371 17.944 C 37.5731 18.152 37.5011 18.368 37.4211 18.592 C 37.3891 18.704 37.3411 18.808 37.2771 18.904 C 37.2291 19 37.1411 19.048 37.0131 19.048 C 36.7731 19.048 36.6531 18.904 36.6531 18.616 V 18.544 C 36.6691 18.176 36.6851 17.816 36.7011 17.464 C 36.7331 17.096 36.7571 16.736 36.7731 16.384 C 36.7891 16.208 36.7971 16.032 36.7971 15.856 C 36.8131 15.68 36.8291 15.512 36.8451 15.352 C 36.8611 15.192 36.9491 15.112 37.1091 15.112 C 37.2211 15.112 37.3331 15.136 37.4451 15.184 C 37.5571 15.216 37.6691 15.232 37.7811 15.232 C 38.3571 15.232 38.9411 15.24 39.5331 15.256 C 40.1411 15.256 40.7251 15.256 41.2851 15.256 C 41.9411 15.256 42.5971 15.256 43.2531 15.256 C 43.9091 15.24 44.5651 15.224 45.2211 15.208 C 45.4931 15.192 45.7651 15.176 46.0371 15.16 C 46.3251 15.144 46.6051 15.136 46.8771 15.136 C 47.0371 15.136 47.1171 15.24 47.1171 15.448 C 47.1171 15.56 47.0851 15.656 47.0211 15.736 C 46.7811 16.12 46.5251 16.504 46.2531 16.888 C 45.9811 17.272 45.7091 17.656 45.4371 18.04 C 44.9571 18.728 44.4691 19.424 43.9731 20.128 C 43.4771 20.832 43.0051 21.544 42.5571 22.264 C 42.4451 22.44 42.2531 22.736 41.9811 23.152 C 41.7091 23.552 41.4131 23.992 41.0931 24.472 C 40.7891 24.952 40.5251 25.392 40.3011 25.792 C 40.0771 26.176 39.9651 26.44 39.9651 26.584 C 39.9651 26.888 40.0211 27.072 40.1331 27.136 C 40.2451 27.2 40.4371 27.232 40.7091 27.232 H 41.5731 C 42.1491 27.248 42.7731 27.208 43.4451 27.112 C 44.1171 27.016 44.6771 26.76 45.1251 26.344 C 45.4451 26.024 45.7251 25.656 45.9651 25.24 C 46.2051 24.824 46.3891 24.416 46.5171 24.016 C 46.5491 23.936 46.5811 23.856 46.6131 23.776 C 46.6611 23.68 46.7331 23.632 46.8291 23.632 C 46.9091 23.632 46.9971 23.648 47.0931 23.68 C 47.1891 23.712 47.2371 23.784 47.2371 23.896 Z M 54.8563 27.712 C 54.8563 27.968 54.7283 28.096 54.4723 28.096 C 54.0083 28.096 53.5363 28.072 53.0563 28.024 C 52.5763 27.992 52.0963 27.976 51.6163 27.976 C 51.1363 27.976 50.6483 27.992 50.1523 28.024 C 49.6723 28.072 49.1923 28.096 48.7123 28.096 C 48.6003 28.096 48.5203 28.056 48.4723 27.976 C 48.4243 27.88 48.4003 27.792 48.4003 27.712 C 48.4003 27.456 48.5203 27.328 48.7603 27.328 C 48.9203 27.328 49.0723 27.336 49.2163 27.352 C 49.3603 27.368 49.5043 27.376 49.6483 27.376 C 49.8403 27.376 49.9603 27.312 50.0083 27.184 C 50.0723 27.056 50.1043 26.912 50.1043 26.752 V 17.224 C 50.1043 17.064 50.0883 16.888 50.0563 16.696 C 50.0243 16.488 49.8963 16.384 49.6723 16.384 C 49.4643 16.384 49.2483 16.4 49.0243 16.432 C 48.8003 16.464 48.5763 16.48 48.3523 16.48 C 48.2563 16.48 48.1603 16.456 48.0643 16.408 C 47.9843 16.36 47.9443 16.28 47.9443 16.168 C 47.9443 15.96 48.0483 15.824 48.2563 15.76 C 48.4323 15.728 48.6163 15.704 48.8083 15.688 C 49.0163 15.656 49.2083 15.632 49.3843 15.616 C 49.9443 15.536 50.4883 15.44 51.0163 15.328 C 51.5603 15.2 52.1043 15.072 52.6483 14.944 C 52.6963 14.944 52.7443 14.944 52.7923 14.944 C 52.8403 14.928 52.8803 14.92 52.9123 14.92 C 53.1523 14.92 53.2723 15.016 53.2723 15.208 C 53.2723 17.128 53.2643 19.056 53.2483 20.992 C 53.2323 22.912 53.2243 24.832 53.2243 26.752 C 53.2243 27.04 53.2883 27.224 53.4163 27.304 C 53.5443 27.368 53.7043 27.392 53.8963 27.376 C 54.1043 27.36 54.3123 27.352 54.5203 27.352 C 54.7443 27.352 54.8563 27.472 54.8563 27.712 Z M 53.3443 11.224 C 53.3443 11.72 53.1603 12.152 52.7923 12.52 C 52.4403 12.888 52.0083 13.072 51.4963 13.072 C 51.0003 13.072 50.5683 12.888 50.2003 12.52 C 49.8323 12.152 49.6483 11.72 49.6483 11.224 C 49.6483 10.712 49.8323 10.28 50.2003 9.928 C 50.5683 9.56 51.0003 9.376 51.4963 9.376 C 52.0083 9.376 52.4403 9.56 52.7923 9.928 C 53.1603 10.28 53.3443 10.712 53.3443 11.224 Z M 70.1863 27.664 C 70.1863 27.92 70.0583 28.048 69.8023 28.048 C 69.3383 28.048 68.8663 28.032 68.3863 28 C 67.9223 27.984 67.4583 27.976 66.9943 27.976 C 66.5463 27.976 66.0903 27.984 65.6263 28 C 65.1623 28.032 64.6983 28.048 64.2343 28.048 C 64.1223 28.048 64.0423 28.008 63.9943 27.928 C 63.9463 27.832 63.9223 27.736 63.9223 27.64 C 63.9223 27.4 64.0503 27.28 64.3063 27.28 C 64.4503 27.28 64.5943 27.288 64.7383 27.304 C 64.8823 27.304 65.0263 27.304 65.1703 27.304 C 65.4103 27.304 65.5303 27.2 65.5303 26.992 C 65.5303 25.648 65.5303 24.304 65.5303 22.96 C 65.5463 21.616 65.5543 20.272 65.5543 18.928 C 65.5543 18.496 65.5143 18.048 65.4343 17.584 C 65.3703 17.12 65.2103 16.728 64.9543 16.408 C 64.7143 16.088 64.3143 15.928 63.7543 15.928 C 63.4023 15.928 63.0343 16.056 62.6503 16.312 C 62.2823 16.568 61.9463 16.872 61.6423 17.224 C 61.3543 17.576 61.1463 17.904 61.0183 18.208 V 26.704 C 61.0183 26.848 61.0343 26.984 61.0663 27.112 C 61.1143 27.24 61.2263 27.304 61.4023 27.304 C 61.5303 27.304 61.6583 27.304 61.7863 27.304 C 61.9303 27.288 62.0663 27.28 62.1943 27.28 C 62.2743 27.28 62.3543 27.312 62.4343 27.376 C 62.5143 27.44 62.5543 27.512 62.5543 27.592 C 62.5543 27.896 62.4263 28.048 62.1703 28.048 C 61.7223 28.048 61.2743 28.032 60.8263 28 C 60.3943 27.952 59.9463 27.928 59.4823 27.928 C 59.0023 27.928 58.5143 27.952 58.0183 28 C 57.5383 28.032 57.0503 28.048 56.5543 28.048 C 56.4423 28.048 56.3623 28.008 56.3143 27.928 C 56.2663 27.832 56.2423 27.736 56.2423 27.64 C 56.2423 27.4 56.3703 27.28 56.6263 27.28 C 56.7703 27.28 56.9143 27.288 57.0583 27.304 C 57.2023 27.304 57.3543 27.304 57.5143 27.304 C 57.7383 27.304 57.8663 27.256 57.8983 27.16 C 57.9303 27.064 57.9463 26.912 57.9463 26.704 V 23.224 C 57.9463 22.248 57.9463 21.272 57.9463 20.296 C 57.9463 19.32 57.9463 18.344 57.9463 17.368 C 57.9463 17.192 57.9223 17 57.8743 16.792 C 57.8263 16.568 57.6823 16.456 57.4423 16.456 C 57.2823 16.456 57.1223 16.464 56.9623 16.48 C 56.8183 16.496 56.6663 16.504 56.5063 16.504 C 56.4103 16.504 56.2983 16.488 56.1703 16.456 C 56.0583 16.408 56.0023 16.32 56.0023 16.192 C 56.0023 16.096 56.0343 16.024 56.0983 15.976 C 56.1623 15.928 56.2343 15.896 56.3143 15.88 C 56.4743 15.832 56.6423 15.8 56.8183 15.784 C 56.9943 15.768 57.1623 15.744 57.3223 15.712 C 57.7383 15.632 58.1463 15.544 58.5463 15.448 C 58.9623 15.336 59.3703 15.224 59.7703 15.112 C 59.8343 15.08 59.8983 15.056 59.9623 15.04 C 60.0263 15.008 60.0903 14.992 60.1543 14.992 C 60.2823 14.992 60.3943 15.112 60.4903 15.352 C 60.6023 15.592 60.6903 15.848 60.7543 16.12 C 60.8343 16.392 60.8823 16.584 60.8983 16.696 C 61.3623 16.28 61.9223 15.912 62.5783 15.592 C 63.2343 15.256 63.8823 15.088 64.5223 15.088 C 65.5943 15.088 66.4263 15.224 67.0183 15.496 C 67.6263 15.768 68.0583 16.224 68.3143 16.864 C 68.5703 17.488 68.6983 18.328 68.6983 19.384 C 68.6983 20.632 68.6903 21.88 68.6743 23.128 C 68.6583 24.376 68.6503 25.624 68.6503 26.872 C 68.6503 27.032 68.6983 27.152 68.7943 27.232 C 68.9063 27.296 69.0423 27.328 69.2023 27.328 C 69.3143 27.328 69.4183 27.32 69.5143 27.304 C 69.6263 27.288 69.7383 27.28 69.8503 27.28 C 70.0743 27.28 70.1863 27.408 70.1863 27.664 Z" stroke-linecap="round"/>
</g>
</g>
</g>
<g transform="matrix(1 0 0 1 460.508 445.9967)" style="filter: url(#SVGID_54);" id="249690">
<filter id="SVGID_54" y="-31.13%" height="162.26%" x="-20.86%" width="141.72%">
	<feGaussianBlur in="SourceAlpha" stdDeviation="5"/>
	<feOffset dx="10" dy="10" result="oBlur"/>
	<feFlood flood-color="rgb(0,0,0)" flood-opacity="1"/>
	<feComposite in2="oBlur" operator="in"/>
	<feMerge>
		<feMergeNode/>
		<feMergeNode in="SourceGraphic"/>
	</feMerge>
</filter>
		
<path xml:space="preserve" font-family="Yrsa" font-size="159" font-style="normal" font-weight="bold" style="stroke: none; stroke-width: 1; stroke-dasharray: none; stroke-linecap: butt; stroke-dashoffset: 0; stroke-linejoin: miter; stroke-miterlimit: 4; is-custom-font: none; font-file-url: none; fill: rgb(153,193,65); fill-rule: nonzero; opacity: 1; white-space: pre;" d="M-234.78 39.95L-224.26 41.62L-224.26 49.95L-261.26 49.95L-261.26 41.62L-252.24 40.00Q-250.91 39.77-250.24 38.93Q-249.58 38.10-249.58 36.77L-249.58 36.77L-249.58-26.60Q-249.58-27.93-250.24-28.77Q-250.91-29.61-252.24-29.90L-252.24-29.90L-261.26-31.63L-261.26-40.36L-227.03-40.36L-189.16 21.21L-189.16-26.60Q-189.16-27.93-189.85-28.80Q-190.55-29.67-191.82-29.90L-191.82-29.90L-201.42-31.63L-201.42-40.36L-165.97-40.36L-165.97-31.63L-174.36-29.90Q-175.69-29.61-176.35-28.77Q-177.02-27.93-177.02-26.60L-177.02-26.60L-177.02 49.95L-196.85 49.95L-237.44-16.66L-237.44 36.71Q-237.44 38.04-236.74 38.88Q-236.05 39.71-234.78 39.95L-234.78 39.95Z"/><path xml:space="preserve" font-family="Yrsa" font-size="159" font-style="normal" font-weight="bold" style="stroke: none; stroke-width: 1; stroke-dasharray: none; stroke-linecap: butt; stroke-dashoffset: 0; stroke-linejoin: miter; stroke-miterlimit: 4; is-custom-font: none; font-file-url: none; fill: rgb(0,0,0); fill-rule: nonzero; opacity: 1; white-space: pre;" d="M-121.28 39.77L-121.28 39.77Q-118.68 39.77-116.34 39.02Q-114.00 38.27-112.03 36.88L-112.03 36.88L-112.03 22.60L-118.39 23.01Q-124.00 23.29-126.02 26.07Q-128.05 28.84-128.05 32.55L-128.05 32.55Q-128.05 36.19-126.48 37.98Q-124.92 39.77-121.28 39.77ZM-96.82 51.05L-96.82 51.05Q-101.80 51.05-105.32 49.34Q-108.85 47.64-110.70 43.30L-110.70 43.30Q-114.05 47.12-119.05 49.20Q-124.06 51.28-130.18 51.28L-130.18 51.28Q-138.97 51.28-144.21 46.80Q-149.44 42.32-149.44 35.03L-149.44 35.03Q-149.44 30.41-147.33 26.88Q-145.22 23.35-141.69 20.95Q-138.16 18.55-133.51 17.22Q-128.86 15.89-123.82 15.60L-123.82 15.60L-112.03 14.97L-112.03 8.49Q-112.03 1.44-115.27-1.28Q-118.51-4.00-124.58-4.00L-124.58-4.00Q-129.84-4.00-134.38-2.29Q-138.92-0.58-142.73 2.83L-142.73 2.83L-147.47-1.28Q-144.64-8.74-137.35-13.10Q-130.07-17.47-118.39-17.47L-118.39-17.47Q-104.40-17.47-98.10-10.96Q-91.79-4.46-91.79 8.15L-91.79 8.15L-91.79 36.77Q-91.79 38.56-91.04 39.34Q-90.29 40.12-88.84 40.29L-88.84 40.29L-83.12 40.99L-83.12 48.79Q-85.43 49.43-89.39 50.24Q-93.35 51.05-96.82 51.05Z"/><path xml:space="preserve" font-family="Yrsa" font-size="159" font-style="normal" font-weight="bold" style="stroke: none; stroke-width: 1; stroke-dasharray: none; stroke-linecap: butt; stroke-dashoffset: 0; stroke-linejoin: miter; stroke-miterlimit: 4; is-custom-font: none; font-file-url: none; fill: rgb(0,0,0); fill-rule: nonzero; opacity: 1; white-space: pre;" d="M-23.12 50.87L-41.27 50.87L-62.73-3.59Q-63.19-4.69-63.91-5.33Q-64.63-5.96-65.73-6.31L-65.73-6.31L-70.07-7.70L-70.07-15.85L-31.97-15.85L-31.97-7.52L-40.35-5.73L-27.17 33.82L-14.10-5.73L-22.37-7.52L-22.37-15.85L3.71-15.85L3.71-7.70L-0.63-6.31Q-1.73-5.96-2.54-5.35Q-3.35-4.75-3.75-3.65L-3.75-3.65L-23.12 50.87Z"/><path xml:space="preserve" font-family="Yrsa" font-size="159" font-style="normal" font-weight="bold" style="stroke: none; stroke-width: 1; stroke-dasharray: none; stroke-linecap: butt; stroke-dashoffset: 0; stroke-linejoin: miter; stroke-miterlimit: 4; is-custom-font: none; font-file-url: none; fill: rgb(0,0,0); fill-rule: nonzero; opacity: 1; white-space: pre;" d="M51.84-8.97L51.84-8.97Q47.97-8.97 45.45-5.59Q42.94-2.20 42.24 6.47L42.24 6.47L60.57 6.47Q60.63 5.95 60.63 5.28Q60.63 4.62 60.63 3.81L60.63 3.81Q60.63-1.74 58.52-5.35Q56.41-8.97 51.84-8.97ZM74.62 32.20L79.13 35.55Q76.82 43.30 69.42 47.38Q62.02 51.45 51.67 51.45L51.67 51.45Q43.69 51.45 37.79 49.08Q31.89 46.71 28.08 42.32Q24.26 37.92 22.41 31.62Q20.56 25.32 20.56 17.57L20.56 17.57Q20.56 0.46 29.12-8.53Q37.68-17.53 53.29-17.53L53.29-17.53Q60.17-17.53 65.20-15.85Q70.23-14.17 73.41-11.19Q76.59-8.22 78.12-4.08Q79.65 0.05 79.65 4.85L79.65 4.85Q79.65 7.05 79.36 9.62Q79.07 12.19 78.67 14.22L78.67 14.22L41.95 14.22Q42.01 26.94 45.48 32.81Q48.95 38.67 58.03 38.67L58.03 38.67Q62.77 38.67 67.25 37.05Q71.73 35.44 74.62 32.20L74.62 32.20Z"/><path xml:space="preserve" font-family="Yrsa" font-size="159" font-style="normal" font-weight="bold" style="stroke: none; stroke-width: 1; stroke-dasharray: none; stroke-linecap: butt; stroke-dashoffset: 0; stroke-linejoin: miter; stroke-miterlimit: 4; is-custom-font: none; font-file-url: none; fill: rgb(0,0,0); fill-rule: nonzero; opacity: 1; white-space: pre;" d="M133.89-8.97L133.89-8.97Q130.01-8.97 127.50-5.59Q124.98-2.20 124.29 6.47L124.29 6.47L142.62 6.47Q142.67 5.95 142.67 5.28Q142.67 4.62 142.67 3.81L142.67 3.81Q142.67-1.74 140.56-5.35Q138.45-8.97 133.89-8.97ZM156.67 32.20L161.18 35.55Q158.86 43.30 151.46 47.38Q144.06 51.45 133.71 51.45L133.71 51.45Q125.73 51.45 119.84 49.08Q113.94 46.71 110.12 42.32Q106.31 37.92 104.46 31.62Q102.61 25.32 102.61 17.57L102.61 17.57Q102.61 0.46 111.16-8.53Q119.72-17.53 135.33-17.53L135.33-17.53Q142.21-17.53 147.24-15.85Q152.27-14.17 155.45-11.19Q158.63-8.22 160.16-4.08Q161.70 0.05 161.70 4.85L161.70 4.85Q161.70 7.05 161.41 9.62Q161.12 12.19 160.71 14.22L160.71 14.22L124.00 14.22Q124.06 26.94 127.53 32.81Q130.99 38.67 140.07 38.67L140.07 38.67Q144.81 38.67 149.29 37.05Q153.77 35.44 156.67 32.20L156.67 32.20Z"/><path xml:space="preserve" font-family="Yrsa" font-size="159" font-style="normal" font-weight="bold" style="stroke: none; stroke-width: 1; stroke-dasharray: none; stroke-linecap: butt; stroke-dashoffset: 0; stroke-linejoin: miter; stroke-miterlimit: 4; is-custom-font: none; font-file-url: none; fill: rgb(0,0,0); fill-rule: nonzero; opacity: 1; white-space: pre;" d="M216.91 40.58L220.84 41.74L220.84 49.95L184.53 49.95L184.53 41.74L190.84 40.52Q192.11 40.29 192.80 39.45Q193.50 38.62 193.50 37.29L193.50 37.29L193.50-0.82Q193.50-2.09 192.86-3.01Q192.22-3.94 190.95-4.17L190.95-4.17L183.90-5.61L183.90-14.11Q189.97-15.73 196.68-16.57Q203.38-17.41 209.22-17.47L209.22-17.47L212.11-14.87L213.33-8.56Q217.43-12.90 222.87-15.07Q228.30-17.24 234.84-17.24L234.84-17.24Q246.46-17.24 250.74-10.73Q255.01-4.23 255.01 7.63L255.01 7.63L255.01 37.29Q255.01 38.62 255.71 39.45Q256.40 40.29 257.67 40.52L257.67 40.52L263.98 41.68L263.98 49.95L227.67 49.95L227.67 41.74L231.54 40.58Q232.81 40.12 233.48 39.37Q234.14 38.62 234.14 37.29L234.14 37.29L234.14 9.94Q234.14 1.84 231.77-1.54Q229.40-4.92 224.26-4.92L224.26-4.92Q221.88-4.92 219.34-4.23Q216.80-3.53 214.37-2.15L214.37-2.15L214.37 37.29Q214.37 38.62 215.03 39.40Q215.70 40.18 216.91 40.58L216.91 40.58Z"/></g>
</svg>